<svg width="109" height="23" viewBox="0 0 109 23" fill="none" xmlns="http://www.w3.org/2000/svg">
<path fill-rule="evenodd" clip-rule="evenodd" d="M41.188 22.4772H40.4078L40.5025 22.2362L41.188 22.4772ZM51.9099 5.9335L58.4026 22.4772H53.5957L52.4865 19.5049H46.7813L47.9493 16.4138H51.3772L49.7219 11.7233L51.9099 5.9335Z" fill="#1F71EC" stroke="#2B2A29" stroke-width="0.5" stroke-miterlimit="22.9256"/>
<path d="M10.2586 5.84805C12.1156 5.84805 13.5247 6.31173 14.4861 7.23909C15.4474 8.16639 15.9281 9.52575 15.9281 11.317V17.0238C15.9281 18.815 15.4474 20.1744 14.4861 21.1017C13.5247 22.029 12.1156 22.4927 10.2586 22.4927H0.644897V5.84805H10.2586ZM43.4393 5.85988L42.0424 9.5981H39.3635L42.2054 17.4993L46.3959 5.84805H51.2028L44.6704 22.4927H39.7403L33.208 5.84805C36.625 5.84805 40.0212 5.85988 43.4393 5.85988ZM11.4911 11.317C11.4911 9.89034 10.7516 9.17701 9.27252 9.17701H5.08201V19.1637H9.27252C10.7516 19.1637 11.4911 18.4504 11.4911 17.0238V11.317ZM32.5179 22.4927H18.8369V5.84805H32.5179V9.17701H23.274V12.387H30.5458V15.716H23.274V19.1637H32.5179V22.4927Z" fill="#FEFEFE" stroke="#2B2A29" stroke-width="0.5" stroke-miterlimit="22.9256"/>
<path d="M60.0529 5.84804H70.406C72.1316 5.84804 73.3846 6.22452 74.1652 6.97748C74.9458 7.7305 75.3361 8.93918 75.3361 10.6037V12.7437C75.3361 14.0594 75.1101 15.0819 74.6582 15.8111C74.2063 16.5402 73.4873 17.0237 72.5013 17.2615L75.5826 22.4927H70.7758L67.941 17.4993H64.49V22.4927H60.0529V5.84804ZM70.899 10.6037C70.899 9.65251 70.406 9.177 69.42 9.177H64.49V14.1704H69.42C70.406 14.1704 70.899 13.6948 70.899 12.7437V10.6037ZM86.1823 22.4927H81.7452V9.177H76.5686V5.84804H91.3588V9.177H86.1823V22.4927ZM104.177 10.3659C104.177 9.41475 103.684 8.93918 102.698 8.93918H98.5074C97.5215 8.93918 97.0285 9.41475 97.0285 10.3659V17.9748C97.0285 18.926 97.5215 19.4015 98.5074 19.4015H102.698C103.684 19.4015 104.177 18.926 104.177 17.9748V10.3659ZM108.614 17.9748C108.614 19.6393 108.224 20.8481 107.443 21.601C106.663 22.354 105.41 22.7304 103.684 22.7304H97.5215C95.7959 22.7304 94.5428 22.354 93.7623 21.601C92.9817 20.8481 92.5914 19.6393 92.5914 17.9748V10.3659C92.5914 8.70143 92.9817 7.49268 93.7623 6.73972C94.5428 5.98677 95.7959 5.61029 97.5215 5.61029H103.684C105.41 5.61029 106.663 5.98677 107.443 6.73972C108.224 7.49268 108.614 8.70143 108.614 10.3659V17.9748Z" fill="#1F71EC" stroke="#2B2A29" stroke-width="0.5" stroke-miterlimit="22.9256"/>
<path fill-rule="evenodd" clip-rule="evenodd" d="M53.2048 0.531769L51.7685 3.85671H0.623291V0.531769H53.2048Z" fill="#FEFEFE" stroke="#2B2A29" stroke-width="0.5" stroke-miterlimit="22.9256"/>
<path fill-rule="evenodd" clip-rule="evenodd" d="M108.397 3.85671H52.5657L54.002 0.531769H108.397V3.85671Z" fill="#1F71EC" stroke="#2B2A29" stroke-width="0.5" stroke-miterlimit="22.9256"/>
</svg>
