<svg xmlns="http://www.w3.org/2000/svg" xmlns:xlink="http://www.w3.org/1999/xlink" version="1.1" width="256" height="256" viewBox="0 0 256 256" xml:space="preserve">
<desc>Created with Fabric.js 1.7.22</desc>
<defs>
</defs>
<g transform="translate(128 128) scale(0.72 0.72)" style="">
	<g style="stroke: none; stroke-width: 0; stroke-dasharray: none; stroke-linecap: butt; stroke-linejoin: miter; stroke-miterlimit: 10; fill: none; fill-rule: nonzero; opacity: 1;" transform="translate(-175.05 -175.05) scale(3.89 3.89)" >
	<path d="M 48.391 75.222 h -6.773 c -3.544 0 -6.428 -2.884 -6.428 -6.427 c 0 -0.913 -0.506 -1.739 -1.32 -2.157 c -0.696 -0.358 -1.384 -0.755 -2.043 -1.178 c -0.768 -0.494 -1.733 -0.519 -2.521 -0.063 c -1.487 0.859 -3.22 1.087 -4.878 0.642 c -1.659 -0.444 -3.045 -1.508 -3.903 -2.995 l -3.386 -5.865 c -0.859 -1.487 -1.087 -3.219 -0.642 -4.878 c 0.444 -1.659 1.508 -3.045 2.995 -3.903 c 0.788 -0.455 1.25 -1.303 1.207 -2.214 c -0.038 -0.781 -0.038 -1.576 0 -2.361 c 0.044 -0.909 -0.412 -1.756 -1.193 -2.212 c -0.005 -0.003 -0.01 -0.006 -0.015 -0.009 c -1.487 -0.859 -2.551 -2.245 -2.995 -3.903 c -0.445 -1.659 -0.216 -3.391 0.642 -4.878 l 3.386 -5.865 c 1.773 -3.069 5.711 -4.123 8.78 -2.353 l 0 0 c 0.789 0.456 1.782 0.416 2.59 -0.102 c 0.307 -0.197 0.622 -0.389 0.942 -0.574 c 0.323 -0.186 0.645 -0.363 0.97 -0.531 c 0.853 -0.441 1.383 -1.281 1.383 -2.192 c 0 -3.544 2.884 -6.428 6.428 -6.428 h 6.773 c 3.544 0 6.428 2.884 6.428 6.428 c 0 0.913 0.506 1.738 1.32 2.156 c 0.697 0.358 1.384 0.755 2.044 1.18 c 0.766 0.494 1.733 0.516 2.521 0.062 c 3.069 -1.771 7.009 -0.717 8.78 2.352 l 3.387 5.866 c 1.772 3.068 0.717 7.007 -2.353 8.78 c -0.01 0.006 -0.021 0.012 -0.03 0.018 c -0.771 0.459 -1.221 1.297 -1.177 2.196 c 0.038 0.785 0.038 1.579 0 2.361 c -0.045 0.914 0.417 1.764 1.205 2.219 c 0.019 0.011 0.037 0.021 0.055 0.033 c 1.459 0.86 2.504 2.233 2.942 3.872 c 0.445 1.659 0.217 3.391 -0.641 4.878 l -3.386 5.865 c -1.774 3.069 -5.713 4.125 -8.781 2.354 c -0.789 -0.456 -1.779 -0.417 -2.59 0.102 c -0.307 0.197 -0.621 0.389 -0.939 0.573 c -0.323 0.186 -0.647 0.362 -0.972 0.53 c -0.854 0.442 -1.384 1.283 -1.384 2.192 C 54.819 72.338 51.936 75.222 48.391 75.222 z M 30.516 61.069 c 1.208 0 2.414 0.344 3.475 1.027 c 0.551 0.354 1.127 0.686 1.709 0.986 c 2.152 1.106 3.49 3.295 3.49 5.71 c 0 1.342 1.09 2.432 2.429 2.432 h 6.773 c 1.339 0 2.43 -1.09 2.43 -2.43 c 0 -2.41 1.358 -4.611 3.544 -5.743 c 0.269 -0.14 0.539 -0.286 0.806 -0.44 c 0.266 -0.154 0.529 -0.314 0.787 -0.479 c 2.07 -1.329 4.656 -1.405 6.745 -0.197 c 1.159 0.668 2.648 0.27 3.318 -0.89 l 3.386 -5.865 c 0.325 -0.562 0.411 -1.216 0.243 -1.844 c -0.168 -0.627 -0.57 -1.15 -1.131 -1.474 c -0.018 -0.011 -0.035 -0.021 -0.054 -0.032 c -2.061 -1.214 -3.266 -3.449 -3.149 -5.847 c 0.032 -0.653 0.032 -1.316 0 -1.972 c -0.116 -2.413 1.11 -4.662 3.201 -5.87 c 0.01 -0.006 0.021 -0.012 0.031 -0.018 c 1.137 -0.678 1.524 -2.151 0.86 -3.301 l -3.387 -5.866 c -0.669 -1.159 -2.157 -1.558 -3.318 -0.889 c -2.094 1.208 -4.654 1.145 -6.685 -0.162 c -0.552 -0.355 -1.127 -0.687 -1.708 -0.986 c -2.152 -1.106 -3.49 -3.294 -3.49 -5.71 c 0 -1.342 -1.09 -2.432 -2.43 -2.432 h -6.773 c -1.339 0 -2.429 1.09 -2.429 2.429 c 0 2.412 -1.358 4.613 -3.545 5.743 c -0.271 0.14 -0.54 0.287 -0.808 0.442 c -0.265 0.153 -0.527 0.312 -0.784 0.477 c -2.074 1.328 -4.659 1.403 -6.746 0.198 l 0 0 c -1.16 -0.67 -2.649 -0.271 -3.319 0.89 l -3.386 5.865 c -0.325 0.562 -0.41 1.216 -0.243 1.843 c 0.166 0.622 0.563 1.143 1.118 1.468 c 0.005 0.003 0.011 0.006 0.016 0.009 c 2.091 1.208 3.317 3.46 3.199 5.878 c -0.032 0.656 -0.032 1.32 0 1.972 c 0.117 2.414 -1.109 4.663 -3.2 5.87 c -0.563 0.324 -0.965 0.848 -1.133 1.475 c -0.168 0.627 -0.082 1.282 0.243 1.844 l 3.386 5.865 c 0.325 0.562 0.849 0.964 1.475 1.132 c 0.627 0.168 1.281 0.082 1.843 -0.242 C 28.305 61.356 29.411 61.069 30.516 61.069 z M 45.029 59.538 c -5.03 0 -9.927 -2.608 -12.617 -7.268 l 0 0 c -4.009 -6.944 -1.621 -15.855 5.322 -19.863 c 3.363 -1.942 7.284 -2.458 11.034 -1.453 c 3.752 1.005 6.888 3.411 8.829 6.775 s 2.458 7.282 1.453 11.034 c -1.005 3.752 -3.411 6.888 -6.775 8.829 C 49.991 58.911 47.494 59.538 45.029 59.538 z M 35.875 50.271 c 1.408 2.438 3.682 4.183 6.402 4.912 c 2.72 0.729 5.561 0.353 8 -1.054 s 4.183 -3.68 4.912 -6.401 c 0.728 -2.72 0.354 -5.561 -1.054 -8 c -1.408 -2.438 -3.68 -4.183 -6.401 -4.912 c -2.717 -0.728 -5.56 -0.354 -8 1.053 C 34.699 38.776 32.969 45.237 35.875 50.271 L 35.875 50.271 z" style="stroke: none; stroke-width: 1; stroke-dasharray: none; stroke-linecap: butt; stroke-linejoin: miter; stroke-miterlimit: 10; fill: rgb(0,153,204); fill-rule: nonzero; opacity: 1;" transform=" matrix(1 0 0 1 0 0) " stroke-linecap="round" />
	<path d="M 8.899 70.322 c -0.657 0 -1.3 -0.323 -1.682 -0.916 c -9.188 -14.252 -9.633 -32.221 -1.161 -46.894 C 12.062 12.108 21.761 4.667 33.364 1.557 C 44.969 -1.552 57.09 0.044 67.492 6.05 c 0.957 0.552 1.284 1.775 0.732 2.731 c -0.553 0.955 -1.773 1.285 -2.731 0.732 c -9.48 -5.472 -20.522 -6.925 -31.094 -4.094 C 23.827 8.252 14.991 15.033 9.518 24.511 c -7.719 13.37 -7.313 29.742 1.06 42.728 c 0.598 0.928 0.331 2.165 -0.597 2.764 C 9.645 70.219 9.27 70.322 8.899 70.322 z" style="stroke: none; stroke-width: 1; stroke-dasharray: none; stroke-linecap: butt; stroke-linejoin: miter; stroke-miterlimit: 10; fill: rgb(0,153,204); fill-rule: nonzero; opacity: 1;" transform=" matrix(1 0 0 1 0 0) " stroke-linecap="round" />
	<path d="M 44.932 89.995 c -7.794 0 -15.485 -2.044 -22.415 -6.045 c -0.956 -0.553 -1.284 -1.776 -0.732 -2.731 c 0.552 -0.957 1.775 -1.284 2.731 -0.732 c 9.479 5.473 20.522 6.928 31.094 4.094 c 10.572 -2.833 19.408 -9.613 24.881 -19.092 c 6.981 -12.09 7.348 -26.738 0.983 -39.185 c -0.503 -0.983 -0.114 -2.188 0.869 -2.69 c 0.986 -0.503 2.189 -0.112 2.69 0.87 c 6.986 13.659 6.582 29.735 -1.079 43.004 c -6.007 10.404 -15.706 17.846 -27.309 20.956 C 52.771 89.48 48.838 89.995 44.932 89.995 z" style="stroke: none; stroke-width: 1; stroke-dasharray: none; stroke-linecap: butt; stroke-linejoin: miter; stroke-miterlimit: 10; fill: rgb(0,153,204); fill-rule: nonzero; opacity: 1;" transform=" matrix(1 0 0 1 0 0) " stroke-linecap="round" />
	<path d="M 70.944 17.511 c -1.212 0 -2.44 -0.308 -3.564 -0.957 c -3.416 -1.972 -4.591 -6.356 -2.619 -9.772 c 0.956 -1.655 2.498 -2.838 4.344 -3.333 c 1.848 -0.493 3.774 -0.241 5.429 0.715 c 3.416 1.972 4.591 6.356 2.619 9.772 C 75.828 16.227 73.417 17.511 70.944 17.511 z M 70.961 7.202 c -0.274 0 -0.55 0.036 -0.822 0.109 c -0.814 0.218 -1.495 0.74 -1.915 1.47 c -0.87 1.506 -0.351 3.44 1.155 4.31 c 1.508 0.869 3.439 0.351 4.311 -1.155 c 0.869 -1.506 0.35 -3.439 -1.156 -4.309 C 72.048 7.346 71.508 7.202 70.961 7.202 z" style="stroke: none; stroke-width: 1; stroke-dasharray: none; stroke-linecap: butt; stroke-linejoin: miter; stroke-miterlimit: 10; fill: rgb(0,153,204); fill-rule: nonzero; opacity: 1;" transform=" matrix(1 0 0 1 0 0) " stroke-linecap="round" />
	<path d="M 70.944 17.511 c -1.212 0 -2.44 -0.308 -3.564 -0.957 c -3.416 -1.972 -4.591 -6.356 -2.619 -9.772 c 0.956 -1.655 2.498 -2.838 4.344 -3.333 c 1.848 -0.493 3.774 -0.241 5.429 0.715 c 3.416 1.972 4.591 6.356 2.619 9.772 C 75.828 16.227 73.417 17.511 70.944 17.511 z M 70.961 7.202 c -0.274 0 -0.55 0.036 -0.822 0.109 c -0.814 0.218 -1.495 0.74 -1.915 1.47 c -0.87 1.506 -0.351 3.44 1.155 4.31 c 1.508 0.869 3.439 0.351 4.311 -1.155 c 0.869 -1.506 0.35 -3.439 -1.156 -4.309 C 72.048 7.346 71.508 7.202 70.961 7.202 z" style="stroke: none; stroke-width: 1; stroke-dasharray: none; stroke-linecap: butt; stroke-linejoin: miter; stroke-miterlimit: 10; fill: rgb(0,153,204); fill-rule: nonzero; opacity: 1;" transform=" matrix(1 0 0 1 0 0) " stroke-linecap="round" />
	<path d="M 19.041 86.798 c -1.239 0 -2.462 -0.325 -3.565 -0.962 c -3.416 -1.972 -4.59 -6.356 -2.618 -9.772 l 0 0 c 1.972 -3.417 6.357 -4.588 9.772 -2.618 c 1.655 0.956 2.838 2.498 3.333 4.344 c 0.494 1.845 0.241 3.773 -0.715 5.428 c -0.955 1.655 -2.498 2.839 -4.343 3.334 C 20.289 86.716 19.663 86.798 19.041 86.798 z M 16.321 78.063 c -0.87 1.507 -0.352 3.44 1.155 4.31 c 0.73 0.422 1.579 0.535 2.394 0.315 c 0.814 -0.218 1.494 -0.74 1.916 -1.47 c 0.421 -0.73 0.533 -1.579 0.315 -2.394 c -0.218 -0.814 -0.74 -1.495 -1.47 -1.915 C 19.125 76.04 17.192 76.557 16.321 78.063 L 16.321 78.063 z" style="stroke: none; stroke-width: 1; stroke-dasharray: none; stroke-linecap: butt; stroke-linejoin: miter; stroke-miterlimit: 10; fill: rgb(0,153,204); fill-rule: nonzero; opacity: 1;" transform=" matrix(1 0 0 1 0 0) " stroke-linecap="round" />
</g>
</g>
</svg>