<svg width="512" height="512" xmlns="http://www.w3.org/2000/svg" data-name="Layer 1">
 <title>location-flat</title>

 <g>
  <title>Layer 1</title>
  <path id="svg_1" fill="#0099cc" d="m0.37,256c0,-141.18 114.45,-255.65 255.63,-255.65s255.64,114.48 255.63,255.65s-114.45,255.65 -255.63,255.65s-255.65,-114.47 -255.63,-255.65z"/>
  <path id="svg_2" fill="#fff" d="m383,340c0,28 -64,42.87 -127,42.87s-127,-14.87 -127,-42.87c0,-23.9 41,-34.9 66,-38.89l3,15.89c-40,7 -53.07,18 -53.07,22.95c0,8.92 43,26.94 111.08,26.94c69,0 111,-18 111,-26.94c0,-4.93 -11,-15.93 -52,-22.95l2,-15.94q66.1,12 66.06,38.89l-0.07,0.05zm-127,8.92l0,0s-64.07,-99.77 -64.07,-155.71c0,-35.06 29,-64.07 64.07,-64.07s64,29 64,64.07c0,54.83 -64,155.71 -64,155.71zm0,-133.72l0,0c12,0 21,-10 21,-22a21,21 0 0 0 -42.07,0c0,12 9,22 21,22l0.07,0z"/>
 </g>
</svg>