<svg width="30" height="30" viewBox="0 0 30 30" fill="none" xmlns="http://www.w3.org/2000/svg">
<circle cx="15" cy="15" r="15" fill="#0099CC"/>
<path d="M12.252 10.8629C14.0806 10.7039 15.9194 10.7039 17.748 10.8629L18.629 10.9394C19.2154 10.9904 19.7177 11.3402 19.978 11.8406C20.0113 11.9046 19.9863 11.9821 19.925 12.0201L16.2698 14.2828C15.4859 14.7681 14.4974 14.7783 13.7037 14.3092L10.0241 12.1349C9.96466 12.0998 9.93737 12.0275 9.96416 11.9639C10.2023 11.3983 10.7375 10.9945 11.3711 10.9394L12.252 10.8629Z" fill="white"/>
<path d="M9.96117 13.1141C9.87019 13.0603 9.7541 13.1182 9.7435 13.2233C9.59549 14.6908 9.63131 16.1721 9.85097 17.6329C9.96677 18.4029 10.5953 18.9933 11.3711 19.0607L12.252 19.1373C14.0806 19.2963 15.9195 19.2963 17.748 19.1373L18.629 19.0607C19.4048 18.9933 20.0332 18.4029 20.149 17.6329C20.3751 16.1296 20.4065 14.6044 20.2431 13.0951C20.2316 12.9892 20.1136 12.9324 20.023 12.9885L16.7304 15.0268C15.6698 15.6833 14.3324 15.6971 13.2585 15.0625L9.96117 13.1141Z" fill="white"/>
</svg>
