<svg width="30" height="30" viewBox="0 0 30 30" fill="none" xmlns="http://www.w3.org/2000/svg">
<circle cx="15" cy="15" r="15" fill="#0099CC"/>
<path d="M10.9168 13.752C12.0347 16.1867 14.0238 18.1225 16.4969 19.1719L16.8933 19.3486C17.8003 19.7527 18.8665 19.4457 19.4197 18.6211L19.9377 17.849C20.1062 17.5979 20.0549 17.2598 19.8196 17.0699L18.0627 15.6526C17.8046 15.4444 17.4252 15.4929 17.2277 15.7593L16.6842 16.4927C15.2896 15.8047 14.1573 14.6724 13.4694 13.2778L14.2028 12.7343C14.4692 12.5369 14.5176 12.1574 14.3095 11.8994L12.892 10.1424C12.7023 9.90714 12.3642 9.85583 12.1132 10.0242L11.3357 10.5455C10.506 11.1018 10.2007 12.1768 10.6141 13.0862L10.9163 13.751L10.9168 13.752Z" fill="white"/>
</svg>
